<?xml version="1.0" encoding="utf-8"?>
<!-- Generator: Adobe Illustrator 16.0.0, SVG Export Plug-In . SVG Version: 6.00 Build 0)  -->
<!DOCTYPE svg PUBLIC "-//W3C//DTD SVG 1.1//EN" "http://www.w3.org/Graphics/SVG/1.1/DTD/svg11.dtd">
<svg version="1.1" id="Layer_1" xmlns="http://www.w3.org/2000/svg" xmlns:xlink="http://www.w3.org/1999/xlink" x="0px" y="0px"
	 width="216px" height="72px" viewBox="0 0 216 72" enable-background="new 0 0 216 72" xml:space="preserve">
<g>
	<path fill="#363436" d="M208.938,60.296c0,6.132-4.479,9.946-10.566,9.946H19.204c-6.092,0-11.039-4.978-11.039-11.107V12.218
		c0-6.131,4.947-11.116,11.039-11.116h179.167c6.088,0,10.566,4.984,10.566,11.116V60.296z"/>
	<g>
		<path fill="#FFFFFF" d="M55.97,36.585c-0.042-4.492,3.677-6.678,3.847-6.779c-2.106-3.07-5.367-3.489-6.515-3.523
			c-2.743-0.288-5.397,1.641-6.796,1.641c-1.426,0-3.575-1.611-5.889-1.567c-2.987,0.049-5.773,1.773-7.301,4.458
			c-3.161,5.465-0.806,13.5,2.219,17.917c1.513,2.161,3.286,4.579,5.597,4.492c2.263-0.09,3.111-1.444,5.843-1.444
			c2.708,0,3.504,1.444,5.863,1.393c2.429-0.038,3.961-2.176,5.42-4.354c1.749-2.481,2.451-4.925,2.48-5.054
			C60.682,43.747,56.018,41.967,55.97,36.585L55.97,36.585z"/>
		<path fill="#FFFFFF" d="M51.509,23.376c1.222-1.524,2.054-3.592,1.819-5.696c-1.759,0.077-3.968,1.219-5.235,2.705
			c-1.123,1.317-2.123,3.467-1.868,5.493C48.207,26.022,50.241,24.877,51.509,23.376L51.509,23.376z"/>
		<path fill="#FFFFFF" d="M83.324,45.184l-1.572-4.837c-0.163-0.501-0.477-1.664-0.935-3.5h-0.056
			c-0.185,0.792-0.475,1.957-0.877,3.5l-1.54,4.837H83.324L83.324,45.184z M88.742,52.916H85.58l-1.732-5.447H77.82l-1.649,5.447
			h-3.082l5.972-18.548h3.685L88.742,52.916L88.742,52.916z"/>
		<path fill="#FFFFFF" d="M101.065,46.174c0-1.3-0.29-2.372-0.875-3.217c-0.644-0.878-1.508-1.323-2.586-1.323
			c-0.734,0-1.398,0.244-1.995,0.731c-0.596,0.482-0.99,1.121-1.172,1.912c-0.09,0.367-0.133,0.668-0.133,0.906v2.23
			c0,0.977,0.296,1.796,0.891,2.462c0.598,0.667,1.373,1.006,2.324,1.006c1.123,0,1.993-0.435,2.618-1.294
			C100.757,48.724,101.065,47.59,101.065,46.174L101.065,46.174z M104.095,46.066c0,2.272-0.611,4.071-1.841,5.392
			c-1.104,1.176-2.469,1.76-4.101,1.76c-1.76,0-3.023-0.632-3.798-1.897h-0.052v7.041h-2.971V43.944c0-1.423-0.04-2.896-0.113-4.398
			h2.612l0.167,2.115h0.055c0.992-1.593,2.495-2.392,4.512-2.392c1.575,0,2.894,0.619,3.948,1.868
			C103.569,42.393,104.095,44.027,104.095,46.066L104.095,46.066z"/>
		<path fill="#FFFFFF" d="M116.451,46.174c0-1.3-0.297-2.372-0.885-3.217c-0.642-0.878-1.506-1.323-2.585-1.323
			c-0.737,0-1.398,0.244-1.997,0.731c-0.594,0.482-0.986,1.121-1.166,1.912c-0.092,0.367-0.137,0.668-0.137,0.906v2.23
			c0,0.977,0.297,1.796,0.891,2.462c0.594,0.667,1.373,1.006,2.326,1.006c1.121,0,1.99-0.435,2.612-1.294
			C116.139,48.724,116.451,47.59,116.451,46.174L116.451,46.174z M119.475,46.066c0,2.272-0.613,4.071-1.846,5.392
			c-1.098,1.176-2.463,1.76-4.097,1.76c-1.761,0-3.027-0.632-3.796-1.897h-0.055v7.041h-2.971V43.944
			c0-1.423-0.039-2.896-0.113-4.398h2.614l0.168,2.115h0.052c0.992-1.593,2.492-2.392,4.513-2.392c1.579,0,2.894,0.619,3.948,1.868
			C118.947,42.393,119.475,44.027,119.475,46.066L119.475,46.066z"/>
		<path fill="#FFFFFF" d="M136.67,47.715c0,1.579-0.548,2.861-1.645,3.854c-1.211,1.081-2.891,1.622-5.053,1.622
			c-1.994,0-3.599-0.386-4.807-1.149l0.689-2.479c1.304,0.787,2.735,1.182,4.297,1.182c1.117,0,1.986-0.252,2.613-0.757
			c0.621-0.509,0.933-1.184,0.933-2.028c0-0.753-0.255-1.388-0.77-1.9c-0.511-0.517-1.368-0.992-2.559-1.436
			c-3.249-1.208-4.869-2.981-4.869-5.319c0-1.521,0.572-2.773,1.706-3.748c1.133-0.972,2.651-1.462,4.542-1.462
			c1.687,0,3.089,0.292,4.21,0.883l-0.746,2.423c-1.05-0.567-2.227-0.852-3.549-0.852c-1.049,0-1.862,0.252-2.447,0.768
			c-0.495,0.46-0.747,1.017-0.747,1.675c0,0.737,0.286,1.344,0.854,1.819c0.497,0.443,1.395,0.918,2.697,1.428
			c1.598,0.646,2.77,1.396,3.522,2.256C136.293,45.356,136.67,46.435,136.67,47.715L136.67,47.715z"/>
		<path fill="#FFFFFF" d="M146.493,41.771h-3.273v6.501c0,1.648,0.576,2.473,1.735,2.473c0.527,0,0.971-0.046,1.314-0.139
			l0.083,2.259c-0.584,0.219-1.357,0.326-2.307,0.326c-1.171,0-2.091-0.354-2.755-1.076c-0.658-0.711-0.988-1.911-0.988-3.599
			v-6.745h-1.95v-2.225h1.95v-2.452l2.917-0.876v3.328h3.273V41.771L146.493,41.771z"/>
		<path fill="#FFFFFF" d="M158.189,46.218c0-1.236-0.266-2.293-0.799-3.177c-0.626-1.068-1.516-1.597-2.671-1.597
			c-1.193,0-2.102,0.528-2.723,1.597c-0.535,0.884-0.799,1.961-0.799,3.229c0,1.234,0.264,2.291,0.799,3.177
			c0.644,1.065,1.54,1.599,2.699,1.599c1.131,0,2.023-0.546,2.663-1.627C157.911,48.518,158.189,47.448,158.189,46.218
			L158.189,46.218z M161.271,46.12c0,2.052-0.592,3.742-1.763,5.065c-1.228,1.352-2.864,2.032-4.9,2.032
			c-1.959,0-3.521-0.648-4.691-1.95c-1.161-1.308-1.744-2.95-1.744-4.927c0-2.071,0.6-3.766,1.804-5.087
			c1.198-1.324,2.822-1.984,4.85-1.984c1.969,0,3.544,0.649,4.738,1.952C160.696,42.488,161.271,44.122,161.271,46.12L161.271,46.12
			z"/>
		<path fill="#FFFFFF" d="M170.929,42.158c-0.299-0.055-0.607-0.079-0.941-0.079c-1.04,0-1.851,0.392-2.419,1.178
			c-0.497,0.702-0.744,1.575-0.744,2.641v7.019h-2.97l0.028-9.161c0-1.543-0.038-2.944-0.112-4.209h2.589l0.107,2.558h0.081
			c0.318-0.882,0.81-1.59,1.488-2.12c0.659-0.476,1.375-0.714,2.145-0.714c0.278,0,0.523,0.022,0.748,0.053V42.158L170.929,42.158z"
			/>
		<path fill="#FFFFFF" d="M181.382,44.828c0.018-0.884-0.175-1.642-0.58-2.284c-0.513-0.826-1.303-1.237-2.365-1.237
			c-0.974,0-1.766,0.399-2.365,1.215c-0.499,0.639-0.79,1.407-0.878,2.307H181.382L181.382,44.828z M184.214,45.597
			c0,0.534-0.034,0.98-0.107,1.35h-8.913c0.033,1.325,0.465,2.327,1.289,3.027c0.754,0.622,1.723,0.93,2.918,0.93
			c1.318,0,2.523-0.205,3.607-0.63l0.464,2.067c-1.267,0.547-2.762,0.825-4.483,0.825c-2.075,0-3.702-0.612-4.887-1.831
			c-1.181-1.223-1.775-2.854-1.775-4.913c0-2.018,0.553-3.695,1.653-5.035c1.154-1.432,2.715-2.146,4.675-2.146
			c1.929,0,3.388,0.714,4.38,2.146C183.821,42.527,184.214,43.929,184.214,45.597L184.214,45.597z"/>
		<path fill="#FFFFFF" d="M80.802,23.003c0-1.063-0.282-1.882-0.85-2.447c-0.562-0.569-1.383-0.851-2.47-0.851
			c-0.454,0-0.847,0.028-1.171,0.095v6.811c0.178,0.028,0.509,0.044,0.987,0.044c1.117,0,1.982-0.319,2.591-0.934
			C80.494,25.098,80.802,24.195,80.802,23.003L80.802,23.003z M82.34,22.96c0,1.642-0.492,2.88-1.474,3.705
			c-0.91,0.767-2.203,1.152-3.878,1.152c-0.829,0-1.54-0.037-2.135-0.107v-8.965c0.771-0.13,1.611-0.19,2.514-0.19
			c1.6,0,2.797,0.347,3.61,1.041C81.883,20.383,82.34,21.502,82.34,22.96L82.34,22.96z"/>
		<path fill="#FFFFFF" d="M88.992,24.44c0-0.6-0.131-1.121-0.397-1.556c-0.301-0.525-0.738-0.785-1.305-0.785
			c-0.59,0-1.037,0.26-1.34,0.785c-0.263,0.435-0.394,0.962-0.394,1.585c0,0.605,0.131,1.126,0.394,1.559
			c0.312,0.524,0.755,0.789,1.325,0.789c0.559,0,0.993-0.267,1.311-0.806C88.854,25.573,88.992,25.05,88.992,24.44L88.992,24.44z
			 M90.502,24.396c0,1.011-0.289,1.835-0.862,2.489c-0.605,0.667-1.406,0.996-2.41,0.996c-0.963,0-1.73-0.318-2.301-0.96
			c-0.573-0.633-0.86-1.444-0.86-2.417c0-1.016,0.296-1.851,0.888-2.503c0.587-0.647,1.382-0.97,2.383-0.97
			c0.965,0,1.74,0.319,2.327,0.958C90.223,22.611,90.502,23.414,90.502,24.396L90.502,24.396z"/>
		<path fill="#FFFFFF" d="M101.452,21.165l-2.055,6.572h-1.336l-0.851-2.856c-0.219-0.712-0.394-1.42-0.531-2.121h-0.026
			c-0.125,0.721-0.303,1.424-0.524,2.121l-0.908,2.856h-1.353l-1.932-6.572h1.501l0.745,3.118c0.176,0.747,0.325,1.444,0.443,2.112
			h0.027c0.111-0.551,0.288-1.249,0.542-2.096l0.934-3.134h1.189l0.891,3.07c0.215,0.747,0.391,1.469,0.529,2.161h0.038
			c0.099-0.674,0.248-1.398,0.447-2.161l0.795-3.07H101.452L101.452,21.165z"/>
		<path fill="#FFFFFF" d="M109.023,27.737h-1.462v-3.764c0-1.16-0.439-1.739-1.321-1.739c-0.438,0-0.787,0.158-1.057,0.476
			c-0.271,0.323-0.402,0.698-0.402,1.13v3.896h-1.465v-4.691c0-0.575-0.016-1.207-0.052-1.88h1.285l0.067,1.025h0.042
			c0.167-0.314,0.422-0.583,0.756-0.791c0.394-0.246,0.837-0.367,1.326-0.367c0.612,0,1.119,0.194,1.526,0.593
			c0.507,0.488,0.758,1.212,0.758,2.176V27.737L109.023,27.737z"/>
		<polygon fill="#FFFFFF" points="113.049,27.737 111.587,27.737 111.587,18.152 113.049,18.152 113.049,27.737 		"/>
		<path fill="#FFFFFF" d="M120.129,24.44c0-0.6-0.131-1.121-0.389-1.556c-0.309-0.525-0.742-0.785-1.31-0.785
			c-0.59,0-1.036,0.26-1.341,0.785c-0.262,0.435-0.393,0.962-0.393,1.585c0,0.605,0.131,1.126,0.393,1.559
			c0.319,0.524,0.757,0.789,1.327,0.789c0.557,0,0.994-0.267,1.308-0.806C119.998,25.573,120.129,25.05,120.129,24.44L120.129,24.44
			z M121.647,24.396c0,1.011-0.294,1.835-0.866,2.489c-0.604,0.667-1.407,0.996-2.406,0.996c-0.965,0-1.732-0.318-2.302-0.96
			c-0.575-0.633-0.861-1.444-0.861-2.417c0-1.016,0.297-1.851,0.888-2.503c0.59-0.647,1.381-0.97,2.381-0.97
			c0.967,0,1.741,0.319,2.327,0.958C121.365,22.611,121.647,23.414,121.647,24.396L121.647,24.396z"/>
		<path fill="#FFFFFF" d="M127.2,25.478v-1.015c-1.612-0.027-2.418,0.414-2.418,1.325c0,0.338,0.089,0.598,0.278,0.771
			c0.188,0.173,0.431,0.258,0.715,0.258c0.32,0,0.621-0.105,0.893-0.309c0.275-0.2,0.445-0.456,0.507-0.772
			C127.191,25.661,127.2,25.579,127.2,25.478L127.2,25.478z M128.714,27.737H127.4l-0.108-0.756h-0.036
			c-0.447,0.601-1.092,0.901-1.92,0.901c-0.617,0-1.123-0.201-1.499-0.595c-0.345-0.359-0.519-0.805-0.519-1.339
			c0-0.801,0.338-1.412,1.01-1.833c0.672-0.425,1.616-0.633,2.837-0.625v-0.124c0-0.858-0.46-1.295-1.368-1.295
			c-0.648,0-1.219,0.164-1.712,0.488l-0.296-0.959c0.609-0.377,1.363-0.567,2.255-0.567c1.717,0,2.579,0.903,2.579,2.717v2.418
			C128.623,26.823,128.652,27.347,128.714,27.737L128.714,27.737z"/>
		<path fill="#FFFFFF" d="M135.498,24.964v-1.096c0-0.185-0.01-0.341-0.037-0.459c-0.083-0.351-0.262-0.646-0.531-0.886
			c-0.27-0.236-0.6-0.357-0.977-0.357c-0.545,0-0.971,0.214-1.283,0.647c-0.31,0.433-0.465,0.988-0.465,1.664
			c0,0.649,0.147,1.176,0.447,1.583c0.314,0.432,0.742,0.647,1.275,0.647c0.48,0,0.863-0.184,1.152-0.541
			C135.366,25.834,135.498,25.434,135.498,24.964L135.498,24.964z M137.018,27.737h-1.299l-0.07-1.061h-0.039
			c-0.41,0.809-1.117,1.206-2.109,1.206c-0.795,0-1.453-0.309-1.975-0.93c-0.523-0.623-0.779-1.43-0.779-2.42
			c0-1.065,0.279-1.926,0.848-2.582c0.551-0.613,1.225-0.918,2.029-0.918c0.881,0,1.501,0.296,1.85,0.892h0.025v-3.771h1.461v7.807
			C136.959,26.603,136.979,27.196,137.018,27.737L137.018,27.737z"/>
		<path fill="#FFFFFF" d="M147.988,24.44c0-0.6-0.13-1.121-0.388-1.556c-0.31-0.525-0.747-0.785-1.312-0.785
			c-0.59,0-1.032,0.26-1.34,0.785c-0.263,0.435-0.394,0.962-0.394,1.585c0,0.605,0.131,1.126,0.394,1.559
			c0.315,0.524,0.753,0.789,1.321,0.789c0.564,0,1-0.267,1.314-0.806C147.854,25.573,147.988,25.05,147.988,24.44L147.988,24.44z
			 M149.5,24.396c0,1.011-0.284,1.835-0.86,2.489c-0.605,0.667-1.407,0.996-2.406,0.996c-0.969,0-1.732-0.318-2.307-0.96
			c-0.569-0.633-0.858-1.444-0.858-2.417c0-1.016,0.297-1.851,0.885-2.503c0.588-0.647,1.386-0.97,2.388-0.97
			c0.965,0,1.741,0.319,2.324,0.958C149.224,22.611,149.5,23.414,149.5,24.396L149.5,24.396z"/>
		<path fill="#FFFFFF" d="M157.356,27.737h-1.463v-3.764c0-1.16-0.437-1.739-1.322-1.739c-0.434,0-0.783,0.158-1.049,0.476
			c-0.274,0.323-0.412,0.698-0.412,1.13v3.896h-1.458v-4.691c0-0.575-0.016-1.207-0.05-1.88h1.278l0.066,1.025h0.044
			c0.172-0.314,0.425-0.583,0.755-0.791c0.397-0.246,0.841-0.367,1.326-0.367c0.612,0,1.122,0.194,1.527,0.593
			c0.507,0.488,0.757,1.212,0.757,2.176V27.737L157.356,27.737z"/>
		<path fill="#FFFFFF" d="M167.186,22.257h-1.61v3.192c0,0.813,0.286,1.216,0.852,1.216c0.265,0,0.478-0.021,0.651-0.069
			l0.038,1.114c-0.288,0.107-0.668,0.16-1.136,0.16c-0.577,0-1.026-0.178-1.347-0.529c-0.33-0.351-0.49-0.939-0.49-1.769v-3.316
			h-0.961v-1.092h0.961v-1.202l1.432-0.434v1.636h1.61V22.257L167.186,22.257z"/>
		<path fill="#FFFFFF" d="M174.918,27.737h-1.463v-3.736c0-1.174-0.445-1.767-1.326-1.767c-0.675,0-1.14,0.343-1.389,1.022
			c-0.048,0.148-0.066,0.321-0.066,0.53v3.95h-1.458v-9.584h1.458v3.961h0.022c0.462-0.718,1.121-1.082,1.977-1.082
			c0.604,0,1.104,0.194,1.503,0.593c0.491,0.492,0.742,1.23,0.742,2.203V27.737L174.918,27.737z"/>
		<path fill="#FFFFFF" d="M181.497,23.759c0.01-0.432-0.084-0.805-0.28-1.122c-0.255-0.403-0.644-0.609-1.165-0.609
			c-0.476,0-0.866,0.202-1.163,0.597c-0.242,0.316-0.386,0.693-0.434,1.133H181.497L181.497,23.759z M182.889,24.138
			c0,0.263-0.018,0.484-0.052,0.664h-4.382c0.021,0.647,0.23,1.144,0.639,1.486c0.366,0.306,0.849,0.46,1.432,0.46
			c0.647,0,1.241-0.104,1.772-0.313l0.228,1.017c-0.625,0.27-1.356,0.401-2.203,0.401c-1.018,0-1.819-0.299-2.396-0.895
			c-0.583-0.602-0.868-1.404-0.868-2.417c0-0.992,0.267-1.812,0.81-2.471c0.562-0.706,1.326-1.057,2.295-1.057
			c0.943,0,1.664,0.351,2.147,1.057C182.695,22.628,182.889,23.319,182.889,24.138L182.889,24.138z"/>
	</g>
</g>
</svg>
