<?xml version="1.0" encoding="utf-8"?>
<!-- Generator: Adobe Illustrator 16.0.0, SVG Export Plug-In . SVG Version: 6.00 Build 0)  -->
<!DOCTYPE svg PUBLIC "-//W3C//DTD SVG 1.1//EN" "http://www.w3.org/Graphics/SVG/1.1/DTD/svg11.dtd">
<svg version="1.1" id="Layer_1" xmlns="http://www.w3.org/2000/svg" xmlns:xlink="http://www.w3.org/1999/xlink" x="0px" y="0px"
	 width="72px" height="72px" viewBox="276 0 72 72" enable-background="new 276 0 72 72" xml:space="preserve">
<g>
	<g>
		<g>
			<path fill="#3FB24C" d="M346,22.399c0,9.179,0,18.335,0,27.507c-0.118,0.743-0.295,1.503-0.334,2.269
				c-0.479,8.121-5.815,14.605-13.721,16.524c-1.88,0.451-3.821,0.664-5.74,0.985c-9.152,0-18.321,0-27.493,0
				c-0.76-0.118-1.523-0.292-2.283-0.344c-7.688-0.429-13.973-5.253-16.209-12.607c-0.632-2.086-0.867-4.332-1.283-6.483
				c0-9.398,0-18.796,0-28.178c0.104-0.714,0.269-1.408,0.32-2.116c0.616-7.895,5.587-14.156,13.062-16.225
				c1.969-0.557,4.035-0.747,6.062-1.11c9.392,0,18.776,0,28.171,0c0.648,0.095,1.294,0.269,1.955,0.321
				c8.317,0.583,14.565,5.799,16.543,13.914C345.499,18.673,345.686,20.546,346,22.399z M284.765,35.95c0.178,0,0.342,0,0.515,0
				c0,4.916-0.102,9.833,0.026,14.742c0.203,7.545,5.046,12.477,12.61,12.588c9.712,0.174,19.415,0.174,29.13,0
				c7.492-0.118,12.411-4.99,12.543-12.463c0.18-9.762,0.173-19.546,0.006-29.308c-0.131-7.485-5.049-12.371-12.516-12.496
				c-9.758-0.161-19.533-0.161-29.294,0c-6.851,0.115-11.311,3.923-12.169,10.73C284.942,25.091,285.021,30.557,284.765,35.95z"/>
			<path fill-rule="evenodd" clip-rule="evenodd" fill="#3FB24C" d="M329.706,36.101c0.059,9.516-7.634,17.257-17.205,17.276
				c-9.529,0.046-17.283-7.646-17.316-17.188c-0.025-9.52,7.689-17.271,17.225-17.313C321.919,18.833,329.653,26.552,329.706,36.101
				z M312.501,47.234c6.117-0.007,11.042-4.926,11.052-11.045c0.003-6.238-4.915-11.14-11.147-11.134
				c-6.139,0.017-11.031,4.902-11.038,11.055C301.36,42.339,306.267,47.244,312.501,47.234z"/>
			<path fill-rule="evenodd" clip-rule="evenodd" fill="#3FB24C" d="M330.426,14.2c2.239,0.042,4.015,1.866,3.976,4.093
				c-0.026,2.24-1.867,4.064-4.061,4.058c-2.227-0.017-4.168-2.03-4.094-4.211C326.329,15.922,328.212,14.147,330.426,14.2z"/>
		</g>
	</g>
</g>
</svg>
