<?xml version="1.0" encoding="utf-8"?>
<!-- Generator: Adobe Illustrator 16.0.0, SVG Export Plug-In . SVG Version: 6.00 Build 0)  -->
<!DOCTYPE svg PUBLIC "-//W3C//DTD SVG 1.1//EN" "http://www.w3.org/Graphics/SVG/1.1/DTD/svg11.dtd">
<svg version="1.1" id="Layer_1" xmlns="http://www.w3.org/2000/svg" xmlns:xlink="http://www.w3.org/1999/xlink" x="0px" y="0px"
	 width="216px" height="72px" viewBox="0 0 216 72" enable-background="new 0 0 216 72" xml:space="preserve">
<g>
	<path fill="#363436" d="M209.154,60.14c0,6.131-4.476,9.945-10.562,9.945H19.417c-6.093,0-11.036-4.979-11.036-11.107V12.061
		c0-6.131,4.943-11.116,11.036-11.116h179.174c6.087,0,10.562,4.984,10.562,11.116V60.14z"/>
	<g>
		<g>
			<g>
				<path fill="#FFFFFF" d="M145.453,40.637l-1.502,1.432c-0.357,0.19-0.694,0.404-1.051,0.562
					c-1.037,0.476-2.104,0.595-3.054,0.595c-0.999,0-2.588-0.065-4.2-1.228c-2.229-1.579-3.213-4.29-3.213-6.651
					c0-4.883,3.982-7.275,7.229-7.275c1.134,0,2.294,0.287,3.238,0.879c1.572,1.045,1.986,2.396,2.209,3.12l-7.403,2.991
					l-2.437,0.188c0.791,4.003,3.508,6.335,6.504,6.335c1.487,0,2.6-0.482,3.615-0.988C145.389,40.597,145.594,40.49,145.453,40.637
					z M140.979,32.672c0.602-0.218,0.917-0.41,0.917-0.847c0-1.259-1.43-2.717-3.119-2.717c-1.265,0-3.625,0.982-3.625,4.38
					c0,0.537,0.066,1.107,0.092,1.67L140.979,32.672z"/>
				<path fill="#FFFFFF" d="M129.961,40.393c0,1.223,0.223,1.414,1.253,1.507c0.538,0.073,1.075,0.099,1.606,0.169l-1.158,0.678
					h-5.558c0.729-0.939,0.857-1.034,0.857-1.662v-0.697l-0.019-18.75h-2.45l2.368-1.129h4.498c-0.975,0.557-1.27,0.908-1.393,2.005
					L129.961,40.393z"/>
				<path fill="#FFFFFF" d="M121.345,29.608c0.728,0.605,2.237,1.859,2.237,4.264c0,2.335-1.315,3.429-2.645,4.476
					c-0.412,0.405-0.887,0.852-0.887,1.541c0,0.692,0.475,1.071,0.826,1.359l1.138,0.869c1.384,1.177,2.643,2.241,2.643,4.417
					c0,2.967-2.871,5.963-8.288,5.963c-4.566,0-6.782-2.179-6.782-4.514c0-1.138,0.569-2.735,2.431-3.841
					c1.961-1.193,4.604-1.35,6.014-1.448c-0.432-0.577-0.938-1.174-0.938-2.145c0-0.531,0.149-0.862,0.315-1.229
					c-0.346,0.03-0.702,0.068-1.013,0.068c-3.341,0-5.23-2.499-5.23-4.954c0-1.451,0.665-3.06,2.019-4.222
					c1.792-1.485,3.938-1.734,5.642-1.734h6.503l-2.021,1.129H121.345z M119.112,43.607c-0.257-0.033-0.412-0.033-0.724-0.033
					c-0.291,0-1.993,0.061-3.312,0.506c-0.686,0.252-2.712,1.002-2.712,3.241c0,2.241,2.173,3.851,5.55,3.851
					c3.023,0,4.629-1.446,4.629-3.399C122.543,46.164,121.504,45.316,119.112,43.607z M120.021,37.615
					c0.723-0.726,0.791-1.728,0.791-2.299c0-2.263-1.35-5.797-3.98-5.797c-0.816,0-1.691,0.408-2.203,1.047
					c-0.525,0.648-0.689,1.504-0.689,2.324c0,2.116,1.233,5.614,3.943,5.614C118.678,38.504,119.523,38.12,120.021,37.615z"/>
				<path fill="#FFFFFF" d="M101.803,43.16c-5.007,0-7.692-3.907-7.692-7.43c0-4.129,3.373-7.659,8.167-7.659
					c4.637,0,7.537,3.625,7.537,7.433C109.814,39.226,106.94,43.16,101.803,43.16z M105.739,40.613
					c0.769-1.009,0.947-2.266,0.947-3.496c0-2.781-1.316-8.069-5.222-8.069c-1.043,0-2.088,0.401-2.841,1.069
					c-1.23,1.098-1.453,2.487-1.453,3.85c0,3.116,1.542,8.245,5.356,8.245C103.759,42.212,105.021,41.615,105.739,40.613z"/>
				<path fill="#FFFFFF" d="M85.034,43.16c-5.012,0-7.688-3.907-7.688-7.43c0-4.129,3.362-7.659,8.165-7.659
					c4.628,0,7.519,3.625,7.519,7.433C93.03,39.226,90.166,43.16,85.034,43.16z M88.978,40.613c0.75-1.009,0.934-2.266,0.934-3.496
					c0-2.781-1.322-8.069-5.222-8.069c-1.049,0-2.083,0.401-2.841,1.069c-1.235,1.098-1.448,2.487-1.448,3.85
					c0,3.116,1.542,8.245,5.354,8.245C86.99,42.212,88.249,41.615,88.978,40.613z"/>
				<path fill="#FFFFFF" d="M75.337,42.068l-4.227,0.969c-1.704,0.272-3.245,0.504-4.873,0.504c-8.15,0-11.25-5.996-11.25-10.692
					c0-5.733,4.395-11.055,11.922-11.055c1.599,0,3.136,0.243,4.541,0.618c2.208,0.619,3.238,1.384,3.888,1.833l-2.451,2.339
					l-1.039,0.228l0.739-1.174c-0.996-0.983-2.832-2.779-6.325-2.779c-4.661,0-8.174,3.544-8.174,8.715
					c0,5.561,4.02,10.784,10.451,10.784c1.901,0,2.866-0.374,3.759-0.732v-4.762l-4.462,0.238l2.355-1.269h6.268l-0.763,0.728
					c-0.205,0.18-0.233,0.238-0.294,0.477c-0.029,0.273-0.063,1.125-0.063,1.419V42.068z"/>
			</g>
			<g>
				<path fill="#FFFFFF" d="M154.533,40.769v8.029h-1.591V28.37h1.591v2.33c1.043-1.503,2.939-2.699,5.148-2.699
					c3.941,0,6.607,3.005,6.607,7.751c0,4.716-2.666,7.775-6.607,7.775C157.6,43.527,155.733,42.456,154.533,40.769z
					 M164.578,35.752c0-3.578-1.859-6.309-5.17-6.309c-2.055,0-4.016,1.618-4.875,3.025v6.54c0.859,1.403,2.82,3.077,4.875,3.077
					C162.719,42.085,164.578,39.335,164.578,35.752z"/>
				<path fill="#FFFFFF" d="M168.471,43.16V22.73h1.594v20.43H168.471z"/>
				<path fill="#FFFFFF" d="M187.959,47.479c0.339,0.157,0.928,0.244,1.29,0.244c0.973,0,1.66-0.401,2.269-1.807l1.156-2.639
					l-6.277-14.907h1.779l5.379,12.925l5.344-12.925h1.799l-7.66,18.035c-0.791,1.866-2.041,2.76-3.764,2.76
					c-0.511,0-1.194-0.097-1.588-0.218L187.959,47.479z"/>
				<path fill="#FFFFFF" d="M183.295,43.116c-0.104-0.521-0.186-0.966-0.238-1.346c-0.054-0.375-0.08-0.756-0.08-1.151
					c-0.539,0.807-1.319,1.474-2.312,1.994c-0.99,0.528-1.921,0.791-3.221,0.791c-1.558,0-2.755-0.382-3.616-1.151
					c-0.852-0.783-1.293-1.83-1.293-3.15c0-1.326,0.629-2.405,1.879-3.231c1.24-0.826,2.854-1.235,4.84-1.235h3.723v-1.844
					c0-1.051-0.361-1.885-1.079-2.484c-0.726-0.611-1.736-0.912-3.056-0.912c-1.198,0-2.174,0.276-2.912,0.816
					c-0.749,0.561-1.113,1.245-1.113,2.076h-1.63l-0.034-0.079c-0.059-1.119,0.455-2.097,1.537-2.94
					c1.082-0.841,2.5-1.275,4.242-1.275c1.733,0,3.147,0.416,4.207,1.246c1.053,0.837,1.588,2.029,1.588,3.595v7.292
					c0,0.518,0.029,1.029,0.09,1.525c0.07,0.497,0.175,0.984,0.314,1.463H183.295z M177.644,41.956c1.352,0,2.329-0.303,3.325-0.903
					c0.979-0.6,1.654-1.372,2.008-2.312v-2.839h-3.736c-1.425,0-2.607,0.323-3.534,0.956c-0.937,0.633-1.409,1.4-1.409,2.291
					c0,0.851,0.301,1.524,0.902,2.031C175.792,41.694,176.607,41.956,177.644,41.956z"/>
			</g>
		</g>
		<g>
			<polygon fill="none" points="34.154,34.917 39.276,29.806 39.276,29.806 34.154,34.917 17.837,18.593 17.837,18.593 
				34.154,34.917 17.802,51.268 17.802,51.268 34.154,34.917 39.292,40.056 39.306,40.056 			"/>
			
				<linearGradient id="SVGID_1_" gradientUnits="userSpaceOnUse" x1="513.3164" y1="-452.4717" x2="491.7632" y2="-465.9606" gradientTransform="matrix(0.7071 0.7071 -0.7071 0.7071 -652.188 -9.4198)">
				<stop  offset="0" style="stop-color:#D6E69D"/>
				<stop  offset="0.4484" style="stop-color:#94C4A9"/>
				<stop  offset="1" style="stop-color:#06A3B5"/>
			</linearGradient>
			<path fill="url(#SVGID_1_)" d="M39.276,29.806L19.343,18.848c-0.568-0.306-1.08-0.385-1.505-0.254l16.317,16.324L39.276,29.806z"
				/>
			
				<linearGradient id="SVGID_2_" gradientUnits="userSpaceOnUse" x1="500.7969" y1="-463.9863" x2="528.7264" y2="-456.6852" gradientTransform="matrix(0.7071 0.7071 -0.7071 0.7071 -652.188 -9.4198)">
				<stop  offset="0" style="stop-color:#EB2D7D"/>
				<stop  offset="0.6966" style="stop-color:#F6BA82"/>
				<stop  offset="1" style="stop-color:#FDE975"/>
			</linearGradient>
			<path fill="url(#SVGID_2_)" d="M39.306,40.056l6.797-3.741c1.377-0.765,1.377-1.999,0-2.757l-6.827-3.752l-5.122,5.111
				L39.306,40.056z"/>
			
				<linearGradient id="SVGID_3_" gradientUnits="userSpaceOnUse" x1="516.3789" y1="-442.2388" x2="486.0792" y2="-460.0653" gradientTransform="matrix(0.7071 0.7071 -0.7071 0.7071 -652.188 -9.4198)">
				<stop  offset="0" style="stop-color:#8ACEBC"/>
				<stop  offset="0.0578" style="stop-color:#82C3BA"/>
				<stop  offset="0.523" style="stop-color:#4980AA"/>
				<stop  offset="0.8469" style="stop-color:#215EA0"/>
				<stop  offset="1" style="stop-color:#0B519B"/>
			</linearGradient>
			<path fill="url(#SVGID_3_)" d="M17.837,18.593c-0.596,0.188-0.997,0.808-0.997,1.737v29.215c0,0.918,0.38,1.515,0.961,1.722
				l16.353-16.351L17.837,18.593z"/>
			
				<linearGradient id="SVGID_4_" gradientUnits="userSpaceOnUse" x1="527.3838" y1="-456.3896" x2="508.7231" y2="-431.8051" gradientTransform="matrix(0.7071 0.7071 -0.7071 0.7071 -652.188 -9.4198)">
				<stop  offset="0" style="stop-color:#F04D27"/>
				<stop  offset="0.4842" style="stop-color:#B5516B"/>
				<stop  offset="0.8396" style="stop-color:#8C5291"/>
				<stop  offset="1" style="stop-color:#7B52A1"/>
			</linearGradient>
			<path fill="url(#SVGID_4_)" d="M17.802,51.268c0.433,0.151,0.973,0.083,1.541-0.237l19.95-10.975l-5.138-5.139L17.802,51.268z"/>
		</g>
	</g>
</g>
</svg>
