<?xml version="1.0" encoding="utf-8"?>
<!-- Generator: Adobe Illustrator 16.0.0, SVG Export Plug-In . SVG Version: 6.00 Build 0)  -->
<!DOCTYPE svg PUBLIC "-//W3C//DTD SVG 1.1//EN" "http://www.w3.org/Graphics/SVG/1.1/DTD/svg11.dtd">
<svg version="1.1" id="Layer_1" xmlns="http://www.w3.org/2000/svg" xmlns:xlink="http://www.w3.org/1999/xlink" x="0px" y="0px"
	 width="72px" height="72px" viewBox="184 0 72 72" enable-background="new 184 0 72 72" xml:space="preserve">
<g>
	<g>
		<path fill="#3FB24C" d="M255,15.359c-2.404,1.081-5.131,1.866-7.848,2.151c2.795-1.759,4.942-4.368,6.026-7.594
			c-2.652,1.532-5.647,2.737-8.745,3.32c-2.522-2.737-6.143-4.365-10.023-4.365c-7.643,0-13.782,6.202-13.782,13.799
			c0,1.035,0.124,2.086,0.314,3.084c-11.386-0.619-21.578-6.005-28.349-14.336c-1.178,1.998-1.867,4.332-1.867,6.857
			c0,4.846,2.447,9.054,6.143,11.455c-2.258,0-4.406-0.714-6.234-1.634v0.076c0,6.68,4.75,12.24,11.09,13.511
			c-1.166,0.409-2.455,0.458-3.706,0.458c-0.883,0-1.732-0.049-2.517-0.173c1.744,5.412,6.788,9.424,12.814,9.499
			c-4.654,3.704-10.593,5.924-17.094,5.924c-1.076,0-2.252-0.089-3.287-0.177c6.096,3.903,13.261,6.219,21.184,6.219
			c25.226,0,39.084-20.978,39.084-39.21c0-0.619,0-1.176-0.084-1.788C250.838,20.526,253.179,18.074,255,15.359"/>
	</g>
</g>
</svg>
